<svg width="1440" height="103" viewBox="0 0 1440 103" fill="none" xmlns="http://www.w3.org/2000/svg">
<g filter="url(#filter0_b_7_585)">
<rect width="1440" height="103" fill="white" fill-opacity="0.7"/>
<path d="M1115.02 58V46.8H1119.39C1120.37 46.8 1121.21 46.9547 1121.9 47.264C1122.6 47.5733 1123.13 48.0213 1123.5 48.608C1123.88 49.1947 1124.06 49.8933 1124.06 50.704C1124.06 51.5147 1123.88 52.2133 1123.5 52.8C1123.13 53.376 1122.6 53.8187 1121.9 54.128C1121.21 54.4373 1120.37 54.592 1119.39 54.592H1115.9L1116.62 53.856V58H1115.02ZM1122.51 58L1119.66 53.936H1121.38L1124.26 58H1122.51ZM1116.62 54.016L1115.9 53.232H1119.34C1120.37 53.232 1121.14 53.0133 1121.66 52.576C1122.2 52.128 1122.46 51.504 1122.46 50.704C1122.46 49.904 1122.2 49.2853 1121.66 48.848C1121.14 48.4107 1120.37 48.192 1119.34 48.192H1115.9L1116.62 47.392V54.016ZM1130.2 58.096C1129.29 58.096 1128.49 57.9093 1127.8 57.536C1127.12 57.1627 1126.58 56.6507 1126.2 56C1125.83 55.3493 1125.64 54.6027 1125.64 53.76C1125.64 52.9173 1125.82 52.1707 1126.18 51.52C1126.56 50.8693 1127.06 50.3627 1127.7 50C1128.36 49.6267 1129.09 49.44 1129.9 49.44C1130.72 49.44 1131.44 49.6213 1132.07 49.984C1132.7 50.3467 1133.19 50.8587 1133.54 51.52C1133.91 52.1707 1134.09 52.9333 1134.09 53.808C1134.09 53.872 1134.08 53.9467 1134.07 54.032C1134.07 54.1173 1134.07 54.1973 1134.06 54.272H1126.84V53.168H1133.26L1132.63 53.552C1132.64 53.008 1132.53 52.5227 1132.3 52.096C1132.06 51.6693 1131.74 51.3387 1131.32 51.104C1130.92 50.8587 1130.44 50.736 1129.9 50.736C1129.36 50.736 1128.89 50.8587 1128.47 51.104C1128.06 51.3387 1127.73 51.6747 1127.5 52.112C1127.26 52.5387 1127.14 53.0293 1127.14 53.584V53.84C1127.14 54.4053 1127.27 54.912 1127.53 55.36C1127.8 55.7973 1128.16 56.1387 1128.63 56.384C1129.1 56.6293 1129.64 56.752 1130.25 56.752C1130.75 56.752 1131.2 56.6667 1131.61 56.496C1132.02 56.3253 1132.39 56.0693 1132.7 55.728L1133.54 56.72C1133.16 57.168 1132.68 57.5093 1132.1 57.744C1131.54 57.9787 1130.9 58.096 1130.2 58.096ZM1139.93 61.2C1139.15 61.2 1138.4 61.088 1137.66 60.864C1136.94 60.6507 1136.34 60.3413 1135.89 59.936L1136.62 58.752C1137.02 59.0933 1137.5 59.36 1138.08 59.552C1138.65 59.7547 1139.26 59.856 1139.89 59.856C1140.89 59.856 1141.62 59.6213 1142.09 59.152C1142.56 58.6827 1142.8 57.968 1142.8 57.008V55.216L1142.96 53.536L1142.88 51.84V49.52H1144.33V56.848C1144.33 58.3413 1143.96 59.44 1143.21 60.144C1142.47 60.848 1141.37 61.2 1139.93 61.2ZM1139.74 57.648C1138.92 57.648 1138.18 57.4773 1137.53 57.136C1136.89 56.784 1136.38 56.2987 1136 55.68C1135.62 55.0613 1135.44 54.3467 1135.44 53.536C1135.44 52.7147 1135.62 52 1136 51.392C1136.38 50.7733 1136.89 50.2933 1137.53 49.952C1138.18 49.6107 1138.92 49.44 1139.74 49.44C1140.47 49.44 1141.13 49.5893 1141.73 49.888C1142.32 50.176 1142.8 50.624 1143.15 51.232C1143.51 51.84 1143.69 52.608 1143.69 53.536C1143.69 54.4533 1143.51 55.216 1143.15 55.824C1142.8 56.432 1142.32 56.8907 1141.73 57.2C1141.13 57.4987 1140.47 57.648 1139.74 57.648ZM1139.92 56.304C1140.48 56.304 1140.98 56.1867 1141.42 55.952C1141.86 55.7173 1142.2 55.392 1142.45 54.976C1142.7 54.56 1142.83 54.08 1142.83 53.536C1142.83 52.992 1142.7 52.512 1142.45 52.096C1142.2 51.68 1141.86 51.36 1141.42 51.136C1140.98 50.9013 1140.48 50.784 1139.92 50.784C1139.35 50.784 1138.85 50.9013 1138.4 51.136C1137.96 51.36 1137.61 51.68 1137.36 52.096C1137.11 52.512 1136.99 52.992 1136.99 53.536C1136.99 54.08 1137.11 54.56 1137.36 54.976C1137.61 55.392 1137.96 55.7173 1138.4 55.952C1138.85 56.1867 1139.35 56.304 1139.92 56.304ZM1147.27 58V49.52H1148.8V58H1147.27ZM1148.04 47.888C1147.74 47.888 1147.49 47.792 1147.28 47.6C1147.09 47.408 1147 47.1733 1147 46.896C1147 46.608 1147.09 46.368 1147.28 46.176C1147.49 45.984 1147.74 45.888 1148.04 45.888C1148.34 45.888 1148.58 45.984 1148.77 46.176C1148.98 46.3573 1149.08 46.5867 1149.08 46.864C1149.08 47.152 1148.98 47.3973 1148.79 47.6C1148.6 47.792 1148.35 47.888 1148.04 47.888ZM1154.17 58.096C1153.47 58.096 1152.79 58 1152.15 57.808C1151.52 57.616 1151.03 57.3813 1150.67 57.104L1151.31 55.888C1151.67 56.1333 1152.12 56.3413 1152.65 56.512C1153.18 56.6827 1153.73 56.768 1154.28 56.768C1155 56.768 1155.51 56.6667 1155.82 56.464C1156.14 56.2613 1156.3 55.9787 1156.3 55.616C1156.3 55.3493 1156.2 55.1413 1156.01 54.992C1155.82 54.8427 1155.56 54.7307 1155.24 54.656C1154.93 54.5813 1154.59 54.5173 1154.2 54.464C1153.82 54.4 1153.43 54.3253 1153.05 54.24C1152.67 54.144 1152.31 54.016 1151.99 53.856C1151.67 53.6853 1151.42 53.456 1151.23 53.168C1151.03 52.8693 1150.94 52.4747 1150.94 51.984C1150.94 51.472 1151.08 51.024 1151.37 50.64C1151.66 50.256 1152.06 49.9627 1152.59 49.76C1153.12 49.5467 1153.75 49.44 1154.47 49.44C1155.03 49.44 1155.59 49.5093 1156.15 49.648C1156.73 49.776 1157.2 49.9627 1157.56 50.208L1156.91 51.424C1156.52 51.168 1156.12 50.992 1155.71 50.896C1155.29 50.8 1154.87 50.752 1154.46 50.752C1153.79 50.752 1153.28 50.864 1152.95 51.088C1152.62 51.3013 1152.46 51.5787 1152.46 51.92C1152.46 52.208 1152.55 52.432 1152.75 52.592C1152.95 52.7413 1153.2 52.8587 1153.51 52.944C1153.83 53.0293 1154.19 53.104 1154.57 53.168C1154.95 53.2213 1155.34 53.296 1155.72 53.392C1156.11 53.4773 1156.45 53.6 1156.76 53.76C1157.08 53.92 1157.34 54.144 1157.53 54.432C1157.73 54.72 1157.83 55.104 1157.83 55.584C1157.83 56.096 1157.68 56.5387 1157.39 56.912C1157.09 57.2853 1156.67 57.5787 1156.12 57.792C1155.58 57.9947 1154.93 58.096 1154.17 58.096ZM1162.66 58.096C1161.81 58.096 1161.15 57.8667 1160.68 57.408C1160.21 56.9493 1159.98 56.2933 1159.98 55.44V47.664H1161.51V55.376C1161.51 55.8347 1161.62 56.1867 1161.85 56.432C1162.08 56.6773 1162.41 56.8 1162.84 56.8C1163.32 56.8 1163.72 56.6667 1164.04 56.4L1164.52 57.504C1164.29 57.7067 1164 57.856 1163.67 57.952C1163.35 58.048 1163.02 58.096 1162.66 58.096ZM1158.54 50.784V49.52H1163.94V50.784H1158.54ZM1169.87 58.096C1168.97 58.096 1168.17 57.9093 1167.47 57.536C1166.79 57.1627 1166.26 56.6507 1165.87 56C1165.5 55.3493 1165.31 54.6027 1165.31 53.76C1165.31 52.9173 1165.49 52.1707 1165.86 51.52C1166.23 50.8693 1166.74 50.3627 1167.38 50C1168.03 49.6267 1168.76 49.44 1169.57 49.44C1170.39 49.44 1171.12 49.6213 1171.74 49.984C1172.37 50.3467 1172.86 50.8587 1173.22 51.52C1173.58 52.1707 1173.76 52.9333 1173.76 53.808C1173.76 53.872 1173.76 53.9467 1173.74 54.032C1173.74 54.1173 1173.74 54.1973 1173.73 54.272H1166.51V53.168H1172.93L1172.3 53.552C1172.32 53.008 1172.2 52.5227 1171.97 52.096C1171.73 51.6693 1171.41 51.3387 1170.99 51.104C1170.59 50.8587 1170.11 50.736 1169.57 50.736C1169.04 50.736 1168.56 50.8587 1168.14 51.104C1167.73 51.3387 1167.4 51.6747 1167.17 52.112C1166.93 52.5387 1166.82 53.0293 1166.82 53.584V53.84C1166.82 54.4053 1166.94 54.912 1167.2 55.36C1167.47 55.7973 1167.84 56.1387 1168.3 56.384C1168.77 56.6293 1169.31 56.752 1169.92 56.752C1170.42 56.752 1170.88 56.6667 1171.28 56.496C1171.7 56.3253 1172.06 56.0693 1172.37 55.728L1173.22 56.72C1172.83 57.168 1172.35 57.5093 1171.78 57.744C1171.21 57.9787 1170.58 58.096 1169.87 58.096ZM1175.89 58V49.52H1177.37V51.824L1177.22 51.248C1177.46 50.6613 1177.85 50.2133 1178.41 49.904C1178.96 49.5947 1179.64 49.44 1180.45 49.44V50.928C1180.39 50.9173 1180.33 50.912 1180.26 50.912C1180.21 50.912 1180.15 50.912 1180.1 50.912C1179.28 50.912 1178.63 51.1573 1178.15 51.648C1177.67 52.1387 1177.43 52.848 1177.43 53.776V58H1175.89Z" fill="#5C6366"/>
<path d="M1229.97 50.2C1230.68 50.2 1231.37 49.9155 1231.87 49.4092C1232.38 48.9028 1232.67 48.2161 1232.67 47.5C1232.67 46.7839 1232.38 46.0971 1231.87 45.5908C1231.37 45.0845 1230.68 44.8 1229.97 44.8C1229.25 44.8 1228.56 45.0845 1228.06 45.5908C1227.55 46.0971 1227.27 46.7839 1227.27 47.5C1227.27 48.2161 1227.55 48.9028 1228.06 49.4092C1228.56 49.9155 1229.25 50.2 1229.97 50.2ZM1225.12 57.7852C1224.94 57.6752 1224.8 57.5175 1224.71 57.3304C1224.62 57.1433 1224.58 56.9343 1224.61 56.7277C1224.77 55.4236 1225.41 54.2248 1226.39 53.3559C1227.38 52.487 1228.65 52.0077 1229.97 52.0077C1231.28 52.0077 1232.55 52.487 1233.54 53.3559C1234.52 54.2248 1235.16 55.4236 1235.32 56.7277C1235.38 57.148 1235.17 57.5557 1234.81 57.7843C1233.36 58.711 1231.68 59.2024 1229.97 59.2C1228.25 59.2028 1226.57 58.7117 1225.12 57.7852Z" fill="#1A97D4"/>
<path d="M1245.7 58V46.8H1247.3V56.608H1253.37V58H1245.7ZM1258.5 58.096C1257.65 58.096 1256.89 57.9093 1256.23 57.536C1255.57 57.1627 1255.05 56.6507 1254.66 56C1254.28 55.3387 1254.09 54.592 1254.09 53.76C1254.09 52.9173 1254.28 52.1707 1254.66 51.52C1255.05 50.8693 1255.57 50.3627 1256.23 50C1256.89 49.6267 1257.65 49.44 1258.5 49.44C1259.34 49.44 1260.1 49.6267 1260.76 50C1261.43 50.3627 1261.95 50.8693 1262.33 51.52C1262.71 52.16 1262.9 52.9067 1262.9 53.76C1262.9 54.6027 1262.71 55.3493 1262.33 56C1261.95 56.6507 1261.43 57.1627 1260.76 57.536C1260.1 57.9093 1259.34 58.096 1258.5 58.096ZM1258.5 56.752C1259.05 56.752 1259.53 56.6293 1259.96 56.384C1260.4 56.1387 1260.74 55.792 1260.98 55.344C1261.23 54.8853 1261.35 54.3573 1261.35 53.76C1261.35 53.152 1261.23 52.6293 1260.98 52.192C1260.74 51.744 1260.4 51.3973 1259.96 51.152C1259.53 50.9067 1259.05 50.784 1258.5 50.784C1257.96 50.784 1257.47 50.9067 1257.05 51.152C1256.62 51.3973 1256.28 51.744 1256.02 52.192C1255.77 52.6293 1255.64 53.152 1255.64 53.76C1255.64 54.3573 1255.77 54.8853 1256.02 55.344C1256.28 55.792 1256.62 56.1387 1257.05 56.384C1257.47 56.6293 1257.96 56.752 1258.5 56.752ZM1268.74 61.2C1267.96 61.2 1267.2 61.088 1266.47 60.864C1265.74 60.6507 1265.15 60.3413 1264.69 59.936L1265.43 58.752C1265.82 59.0933 1266.31 59.36 1266.88 59.552C1267.46 59.7547 1268.06 59.856 1268.69 59.856C1269.69 59.856 1270.43 59.6213 1270.9 59.152C1271.37 58.6827 1271.6 57.968 1271.6 57.008V55.216L1271.76 53.536L1271.68 51.84V49.52H1273.14V56.848C1273.14 58.3413 1272.76 59.44 1272.02 60.144C1271.27 60.848 1270.18 61.2 1268.74 61.2ZM1268.55 57.648C1267.72 57.648 1266.99 57.4773 1266.34 57.136C1265.7 56.784 1265.19 56.2987 1264.8 55.68C1264.43 55.0613 1264.24 54.3467 1264.24 53.536C1264.24 52.7147 1264.43 52 1264.8 51.392C1265.19 50.7733 1265.7 50.2933 1266.34 49.952C1266.99 49.6107 1267.72 49.44 1268.55 49.44C1269.27 49.44 1269.93 49.5893 1270.53 49.888C1271.13 50.176 1271.6 50.624 1271.95 51.232C1272.32 51.84 1272.5 52.608 1272.5 53.536C1272.5 54.4533 1272.32 55.216 1271.95 55.824C1271.6 56.432 1271.13 56.8907 1270.53 57.2C1269.93 57.4987 1269.27 57.648 1268.55 57.648ZM1268.72 56.304C1269.29 56.304 1269.79 56.1867 1270.23 55.952C1270.66 55.7173 1271 55.392 1271.25 54.976C1271.51 54.56 1271.63 54.08 1271.63 53.536C1271.63 52.992 1271.51 52.512 1271.25 52.096C1271 51.68 1270.66 51.36 1270.23 51.136C1269.79 50.9013 1269.29 50.784 1268.72 50.784C1268.16 50.784 1267.65 50.9013 1267.2 51.136C1266.76 51.36 1266.42 51.68 1266.16 52.096C1265.92 52.512 1265.79 52.992 1265.79 53.536C1265.79 54.08 1265.92 54.56 1266.16 54.976C1266.42 55.392 1266.76 55.7173 1267.2 55.952C1267.65 56.1867 1268.16 56.304 1268.72 56.304ZM1276.07 58V49.52H1277.61V58H1276.07ZM1276.84 47.888C1276.54 47.888 1276.29 47.792 1276.09 47.6C1275.9 47.408 1275.8 47.1733 1275.8 46.896C1275.8 46.608 1275.9 46.368 1276.09 46.176C1276.29 45.984 1276.54 45.888 1276.84 45.888C1277.14 45.888 1277.39 45.984 1277.58 46.176C1277.78 46.3573 1277.88 46.5867 1277.88 46.864C1277.88 47.152 1277.79 47.3973 1277.59 47.6C1277.4 47.792 1277.15 47.888 1276.84 47.888ZM1285.07 49.44C1285.76 49.44 1286.37 49.5733 1286.89 49.84C1287.43 50.1067 1287.84 50.512 1288.14 51.056C1288.44 51.6 1288.59 52.288 1288.59 53.12V58H1287.05V53.296C1287.05 52.4747 1286.85 51.856 1286.45 51.44C1286.05 51.024 1285.49 50.816 1284.77 50.816C1284.22 50.816 1283.75 50.9227 1283.34 51.136C1282.94 51.3493 1282.62 51.664 1282.4 52.08C1282.18 52.496 1282.08 53.0133 1282.08 53.632V58H1280.54V49.52H1282.01V51.808L1281.77 51.2C1282.05 50.6453 1282.48 50.2133 1283.05 49.904C1283.63 49.5947 1284.3 49.44 1285.07 49.44Z" fill="#1A97D4"/>
<rect x="1206.5" y="32.5" width="98" height="39" rx="19.5" stroke="#E1EDF2"/>
<path d="M268.236 58.5L273.308 47.3H274.892L279.98 58.5H278.3L273.772 48.196H274.412L269.884 58.5H268.236ZM270.396 55.7L270.828 54.42H277.132L277.596 55.7H270.396ZM285.923 58.596C285.197 58.596 284.541 58.436 283.955 58.116C283.379 57.7853 282.92 57.3 282.579 56.66C282.248 56.02 282.083 55.22 282.083 54.26C282.083 53.3 282.253 52.5 282.595 51.86C282.947 51.22 283.411 50.74 283.987 50.42C284.573 50.1 285.219 49.94 285.923 49.94C286.755 49.94 287.491 50.1213 288.131 50.484C288.771 50.8467 289.277 51.3533 289.651 52.004C290.024 52.644 290.211 53.396 290.211 54.26C290.211 55.124 290.024 55.8813 289.651 56.532C289.277 57.1827 288.771 57.6893 288.131 58.052C287.491 58.4147 286.755 58.596 285.923 58.596ZM281.427 58.5V46.628H282.963V52.276L282.803 54.244L282.899 56.212V58.5H281.427ZM285.795 57.252C286.339 57.252 286.824 57.1293 287.251 56.884C287.688 56.6387 288.029 56.292 288.275 55.844C288.531 55.3853 288.659 54.8573 288.659 54.26C288.659 53.652 288.531 53.1293 288.275 52.692C288.029 52.244 287.688 51.8973 287.251 51.652C286.824 51.4067 286.339 51.284 285.795 51.284C285.261 51.284 284.776 51.4067 284.339 51.652C283.912 51.8973 283.571 52.244 283.315 52.692C283.069 53.1293 282.947 53.652 282.947 54.26C282.947 54.8573 283.069 55.3853 283.315 55.844C283.571 56.292 283.912 56.6387 284.339 56.884C284.776 57.1293 285.261 57.252 285.795 57.252ZM295.965 58.596C295.112 58.596 294.354 58.4093 293.693 58.036C293.032 57.6627 292.509 57.1507 292.125 56.5C291.741 55.8387 291.549 55.092 291.549 54.26C291.549 53.4173 291.741 52.6707 292.125 52.02C292.509 51.3693 293.032 50.8627 293.693 50.5C294.354 50.1267 295.112 49.94 295.965 49.94C296.808 49.94 297.56 50.1267 298.221 50.5C298.893 50.8627 299.416 51.3693 299.789 52.02C300.173 52.66 300.365 53.4067 300.365 54.26C300.365 55.1027 300.173 55.8493 299.789 56.5C299.416 57.1507 298.893 57.6627 298.221 58.036C297.56 58.4093 296.808 58.596 295.965 58.596ZM295.965 57.252C296.509 57.252 296.994 57.1293 297.421 56.884C297.858 56.6387 298.2 56.292 298.445 55.844C298.69 55.3853 298.813 54.8573 298.813 54.26C298.813 53.652 298.69 53.1293 298.445 52.692C298.2 52.244 297.858 51.8973 297.421 51.652C296.994 51.4067 296.509 51.284 295.965 51.284C295.421 51.284 294.936 51.4067 294.509 51.652C294.082 51.8973 293.741 52.244 293.485 52.692C293.229 53.1293 293.101 53.652 293.101 54.26C293.101 54.8573 293.229 55.3853 293.485 55.844C293.741 56.292 294.082 56.6387 294.509 56.884C294.936 57.1293 295.421 57.252 295.965 57.252ZM306.057 58.596C305.332 58.596 304.692 58.4627 304.137 58.196C303.593 57.9293 303.167 57.524 302.857 56.98C302.559 56.4253 302.409 55.732 302.409 54.9V50.02H303.945V54.724C303.945 55.556 304.143 56.18 304.537 56.596C304.943 57.012 305.508 57.22 306.233 57.22C306.767 57.22 307.231 57.1133 307.625 56.9C308.02 56.676 308.324 56.356 308.537 55.94C308.751 55.5133 308.857 55.0013 308.857 54.404V50.02H310.393V58.5H308.937V56.212L309.177 56.82C308.9 57.3853 308.484 57.8227 307.929 58.132C307.375 58.4413 306.751 58.596 306.057 58.596ZM316.229 58.596C315.376 58.596 314.715 58.3667 314.245 57.908C313.776 57.4493 313.541 56.7933 313.541 55.94V48.164H315.077V55.876C315.077 56.3347 315.189 56.6867 315.413 56.932C315.648 57.1773 315.979 57.3 316.405 57.3C316.885 57.3 317.285 57.1667 317.605 56.9L318.085 58.004C317.851 58.2067 317.568 58.356 317.237 58.452C316.917 58.548 316.581 58.596 316.229 58.596ZM312.101 51.284V50.02H317.509V51.284H312.101Z" fill="#5C6366"/>
<path d="M370.932 58.5V47.3H375.3C376.281 47.3 377.119 47.4547 377.812 47.764C378.505 48.0733 379.039 48.5213 379.412 49.108C379.785 49.6947 379.972 50.3933 379.972 51.204C379.972 52.0147 379.785 52.7133 379.412 53.3C379.039 53.876 378.505 54.324 377.812 54.644C377.119 54.9533 376.281 55.108 375.3 55.108H371.812L372.532 54.356V58.5H370.932ZM372.532 54.516L371.812 53.716H375.252C376.276 53.716 377.049 53.4973 377.572 53.06C378.105 52.6227 378.372 52.004 378.372 51.204C378.372 50.404 378.105 49.7853 377.572 49.348C377.049 48.9107 376.276 48.692 375.252 48.692H371.812L372.532 47.892V54.516ZM387.284 58.5V56.708L387.204 56.372V53.316C387.204 52.6653 387.012 52.164 386.628 51.812C386.255 51.4493 385.69 51.268 384.932 51.268C384.431 51.268 383.94 51.3533 383.46 51.524C382.98 51.684 382.575 51.9027 382.244 52.18L381.604 51.028C382.042 50.676 382.564 50.4093 383.172 50.228C383.791 50.036 384.436 49.94 385.108 49.94C386.271 49.94 387.167 50.2227 387.796 50.788C388.426 51.3533 388.74 52.2173 388.74 53.38V58.5H387.284ZM384.5 58.596C383.871 58.596 383.316 58.4893 382.836 58.276C382.367 58.0627 382.004 57.7693 381.748 57.396C381.492 57.012 381.364 56.58 381.364 56.1C381.364 55.6413 381.471 55.2253 381.684 54.852C381.908 54.4787 382.266 54.18 382.756 53.956C383.258 53.732 383.93 53.62 384.772 53.62H387.46V54.724H384.836C384.068 54.724 383.551 54.852 383.284 55.108C383.018 55.364 382.884 55.6733 382.884 56.036C382.884 56.452 383.05 56.788 383.38 57.044C383.711 57.2893 384.17 57.412 384.756 57.412C385.332 57.412 385.834 57.284 386.26 57.028C386.698 56.772 387.012 56.3987 387.204 55.908L387.508 56.964C387.306 57.4653 386.948 57.8653 386.436 58.164C385.924 58.452 385.279 58.596 384.5 58.596ZM395.279 58.596C394.415 58.596 393.642 58.4093 392.959 58.036C392.287 57.6627 391.759 57.1507 391.375 56.5C390.991 55.8493 390.799 55.1027 390.799 54.26C390.799 53.4173 390.991 52.6707 391.375 52.02C391.759 51.3693 392.287 50.8627 392.959 50.5C393.642 50.1267 394.415 49.94 395.279 49.94C396.047 49.94 396.73 50.0947 397.327 50.404C397.935 50.7027 398.404 51.1507 398.735 51.748L397.567 52.5C397.29 52.084 396.948 51.78 396.543 51.588C396.148 51.3853 395.722 51.284 395.263 51.284C394.708 51.284 394.212 51.4067 393.775 51.652C393.338 51.8973 392.991 52.244 392.735 52.692C392.479 53.1293 392.351 53.652 392.351 54.26C392.351 54.868 392.479 55.396 392.735 55.844C392.991 56.292 393.338 56.6387 393.775 56.884C394.212 57.1293 394.708 57.252 395.263 57.252C395.722 57.252 396.148 57.156 396.543 56.964C396.948 56.7613 397.29 56.452 397.567 56.036L398.735 56.772C398.404 57.3587 397.935 57.812 397.327 58.132C396.73 58.4413 396.047 58.596 395.279 58.596ZM401.862 56.452L401.894 54.484L406.774 50.02H408.63L404.886 53.7L404.054 54.404L401.862 56.452ZM400.614 58.5V46.628H402.15V58.5H400.614ZM407.094 58.5L403.766 54.372L404.758 53.14L408.982 58.5H407.094ZM415.581 58.5V56.708L415.501 56.372V53.316C415.501 52.6653 415.309 52.164 414.925 51.812C414.552 51.4493 413.987 51.268 413.229 51.268C412.728 51.268 412.237 51.3533 411.757 51.524C411.277 51.684 410.872 51.9027 410.541 52.18L409.901 51.028C410.339 50.676 410.861 50.4093 411.469 50.228C412.088 50.036 412.733 49.94 413.405 49.94C414.568 49.94 415.464 50.2227 416.093 50.788C416.723 51.3533 417.037 52.2173 417.037 53.38V58.5H415.581ZM412.797 58.596C412.168 58.596 411.613 58.4893 411.133 58.276C410.664 58.0627 410.301 57.7693 410.045 57.396C409.789 57.012 409.661 56.58 409.661 56.1C409.661 55.6413 409.768 55.2253 409.981 54.852C410.205 54.4787 410.563 54.18 411.053 53.956C411.555 53.732 412.227 53.62 413.069 53.62H415.757V54.724H413.133C412.365 54.724 411.848 54.852 411.581 55.108C411.315 55.364 411.181 55.6733 411.181 56.036C411.181 56.452 411.347 56.788 411.677 57.044C412.008 57.2893 412.467 57.412 413.053 57.412C413.629 57.412 414.131 57.284 414.557 57.028C414.995 56.772 415.309 56.3987 415.501 55.908L415.805 56.964C415.603 57.4653 415.245 57.8653 414.733 58.164C414.221 58.452 413.576 58.596 412.797 58.596ZM423.592 61.7C422.813 61.7 422.056 61.588 421.32 61.364C420.594 61.1507 420.002 60.8413 419.544 60.436L420.28 59.252C420.674 59.5933 421.16 59.86 421.736 60.052C422.312 60.2547 422.914 60.356 423.544 60.356C424.546 60.356 425.282 60.1213 425.752 59.652C426.221 59.1827 426.456 58.468 426.456 57.508V55.716L426.616 54.036L426.536 52.34V50.02H427.992V57.348C427.992 58.8413 427.618 59.94 426.872 60.644C426.125 61.348 425.032 61.7 423.592 61.7ZM423.4 58.148C422.578 58.148 421.842 57.9773 421.192 57.636C420.552 57.284 420.04 56.7987 419.656 56.18C419.282 55.5613 419.096 54.8467 419.096 54.036C419.096 53.2147 419.282 52.5 419.656 51.892C420.04 51.2733 420.552 50.7933 421.192 50.452C421.842 50.1107 422.578 49.94 423.4 49.94C424.125 49.94 424.786 50.0893 425.384 50.388C425.981 50.676 426.456 51.124 426.808 51.732C427.17 52.34 427.352 53.108 427.352 54.036C427.352 54.9533 427.17 55.716 426.808 56.324C426.456 56.932 425.981 57.3907 425.384 57.7C424.786 57.9987 424.125 58.148 423.4 58.148ZM423.576 56.804C424.141 56.804 424.642 56.6867 425.08 56.452C425.517 56.2173 425.858 55.892 426.104 55.476C426.36 55.06 426.488 54.58 426.488 54.036C426.488 53.492 426.36 53.012 426.104 52.596C425.858 52.18 425.517 51.86 425.08 51.636C424.642 51.4013 424.141 51.284 423.576 51.284C423.01 51.284 422.504 51.4013 422.056 51.636C421.618 51.86 421.272 52.18 421.016 52.596C420.77 53.012 420.648 53.492 420.648 54.036C420.648 54.58 420.77 55.06 421.016 55.476C421.272 55.892 421.618 56.2173 422.056 56.452C422.504 56.6867 423.01 56.804 423.576 56.804ZM434.703 58.596C433.796 58.596 432.996 58.4093 432.303 58.036C431.62 57.6627 431.087 57.1507 430.703 56.5C430.329 55.8493 430.143 55.1027 430.143 54.26C430.143 53.4173 430.324 52.6707 430.687 52.02C431.06 51.3693 431.567 50.8627 432.207 50.5C432.857 50.1267 433.588 49.94 434.399 49.94C435.22 49.94 435.945 50.1213 436.575 50.484C437.204 50.8467 437.695 51.3587 438.047 52.02C438.409 52.6707 438.591 53.4333 438.591 54.308C438.591 54.372 438.585 54.4467 438.575 54.532C438.575 54.6173 438.569 54.6973 438.559 54.772H431.343V53.668H437.759L437.135 54.052C437.145 53.508 437.033 53.0227 436.799 52.596C436.564 52.1693 436.239 51.8387 435.823 51.604C435.417 51.3587 434.943 51.236 434.399 51.236C433.865 51.236 433.391 51.3587 432.975 51.604C432.559 51.8387 432.233 52.1747 431.999 52.612C431.764 53.0387 431.647 53.5293 431.647 54.084V54.34C431.647 54.9053 431.775 55.412 432.031 55.86C432.297 56.2973 432.665 56.6387 433.135 56.884C433.604 57.1293 434.143 57.252 434.751 57.252C435.252 57.252 435.705 57.1667 436.111 56.996C436.527 56.8253 436.889 56.5693 437.199 56.228L438.047 57.22C437.663 57.668 437.183 58.0093 436.607 58.244C436.041 58.4787 435.407 58.596 434.703 58.596ZM443.156 58.596C442.452 58.596 441.78 58.5 441.14 58.308C440.51 58.116 440.014 57.8813 439.652 57.604L440.292 56.388C440.654 56.6333 441.102 56.8413 441.636 57.012C442.169 57.1827 442.713 57.268 443.268 57.268C443.982 57.268 444.494 57.1667 444.804 56.964C445.124 56.7613 445.284 56.4787 445.284 56.116C445.284 55.8493 445.188 55.6413 444.996 55.492C444.804 55.3427 444.548 55.2307 444.228 55.156C443.918 55.0813 443.572 55.0173 443.188 54.964C442.804 54.9 442.42 54.8253 442.036 54.74C441.652 54.644 441.3 54.516 440.98 54.356C440.66 54.1853 440.404 53.956 440.212 53.668C440.02 53.3693 439.924 52.9747 439.924 52.484C439.924 51.972 440.068 51.524 440.356 51.14C440.644 50.756 441.049 50.4627 441.572 50.26C442.105 50.0467 442.734 49.94 443.46 49.94C444.014 49.94 444.574 50.0093 445.14 50.148C445.716 50.276 446.185 50.4627 446.548 50.708L445.892 51.924C445.508 51.668 445.108 51.492 444.692 51.396C444.276 51.3 443.86 51.252 443.444 51.252C442.772 51.252 442.27 51.364 441.94 51.588C441.609 51.8013 441.444 52.0787 441.444 52.42C441.444 52.708 441.54 52.932 441.732 53.092C441.934 53.2413 442.19 53.3587 442.5 53.444C442.82 53.5293 443.172 53.604 443.556 53.668C443.94 53.7213 444.324 53.796 444.708 53.892C445.092 53.9773 445.438 54.1 445.748 54.26C446.068 54.42 446.324 54.644 446.516 54.932C446.718 55.22 446.82 55.604 446.82 56.084C446.82 56.596 446.67 57.0387 446.372 57.412C446.073 57.7853 445.652 58.0787 445.108 58.292C444.564 58.4947 443.913 58.596 443.156 58.596Z" fill="#5C6366"/>
<path d="M499.932 58.5V47.3H501.244L508.652 56.5H507.964V47.3H509.564V58.5H508.252L500.844 49.3H501.532V58.5H499.932ZM516.468 58.596C515.562 58.596 514.762 58.4093 514.068 58.036C513.386 57.6627 512.852 57.1507 512.468 56.5C512.095 55.8493 511.908 55.1027 511.908 54.26C511.908 53.4173 512.09 52.6707 512.452 52.02C512.826 51.3693 513.332 50.8627 513.972 50.5C514.623 50.1267 515.354 49.94 516.164 49.94C516.986 49.94 517.711 50.1213 518.34 50.484C518.97 50.8467 519.46 51.3587 519.812 52.02C520.175 52.6707 520.356 53.4333 520.356 54.308C520.356 54.372 520.351 54.4467 520.34 54.532C520.34 54.6173 520.335 54.6973 520.324 54.772H513.108V53.668H519.524L518.9 54.052C518.911 53.508 518.799 53.0227 518.564 52.596C518.33 52.1693 518.004 51.8387 517.588 51.604C517.183 51.3587 516.708 51.236 516.164 51.236C515.631 51.236 515.156 51.3587 514.74 51.604C514.324 51.8387 513.999 52.1747 513.764 52.612C513.53 53.0387 513.412 53.5293 513.412 54.084V54.34C513.412 54.9053 513.54 55.412 513.796 55.86C514.063 56.2973 514.431 56.6387 514.9 56.884C515.37 57.1293 515.908 57.252 516.516 57.252C517.018 57.252 517.471 57.1667 517.876 56.996C518.292 56.8253 518.655 56.5693 518.964 56.228L519.812 57.22C519.428 57.668 518.948 58.0093 518.372 58.244C517.807 58.4787 517.172 58.596 516.468 58.596ZM524.125 58.5L520.973 50.02H522.429L525.229 57.7H524.541L527.453 50.02H528.749L531.597 57.7H530.925L533.789 50.02H535.165L531.997 58.5H530.525L527.853 51.492H528.301L525.597 58.5H524.125ZM539.046 58.596C538.342 58.596 537.67 58.5 537.03 58.308C536.401 58.116 535.905 57.8813 535.542 57.604L536.182 56.388C536.545 56.6333 536.993 56.8413 537.526 57.012C538.06 57.1827 538.604 57.268 539.158 57.268C539.873 57.268 540.385 57.1667 540.694 56.964C541.014 56.7613 541.174 56.4787 541.174 56.116C541.174 55.8493 541.078 55.6413 540.886 55.492C540.694 55.3427 540.438 55.2307 540.118 55.156C539.809 55.0813 539.462 55.0173 539.078 54.964C538.694 54.9 538.31 54.8253 537.926 54.74C537.542 54.644 537.19 54.516 536.87 54.356C536.55 54.1853 536.294 53.956 536.102 53.668C535.91 53.3693 535.814 52.9747 535.814 52.484C535.814 51.972 535.958 51.524 536.246 51.14C536.534 50.756 536.94 50.4627 537.462 50.26C537.996 50.0467 538.625 49.94 539.35 49.94C539.905 49.94 540.465 50.0093 541.03 50.148C541.606 50.276 542.076 50.4627 542.438 50.708L541.782 51.924C541.398 51.668 540.998 51.492 540.582 51.396C540.166 51.3 539.75 51.252 539.334 51.252C538.662 51.252 538.161 51.364 537.83 51.588C537.5 51.8013 537.334 52.0787 537.334 52.42C537.334 52.708 537.43 52.932 537.622 53.092C537.825 53.2413 538.081 53.3587 538.39 53.444C538.71 53.5293 539.062 53.604 539.446 53.668C539.83 53.7213 540.214 53.796 540.598 53.892C540.982 53.9773 541.329 54.1 541.638 54.26C541.958 54.42 542.214 54.644 542.406 54.932C542.609 55.22 542.71 55.604 542.71 56.084C542.71 56.596 542.561 57.0387 542.262 57.412C541.964 57.7853 541.542 58.0787 540.998 58.292C540.454 58.4947 539.804 58.596 539.046 58.596Z" fill="#5C6366"/>
<path d="M594.932 58.5V47.3H599.3C600.281 47.3 601.119 47.4547 601.812 47.764C602.505 48.0733 603.039 48.5213 603.412 49.108C603.785 49.6947 603.972 50.3933 603.972 51.204C603.972 52.0147 603.785 52.7133 603.412 53.3C603.039 53.876 602.505 54.324 601.812 54.644C601.119 54.9533 600.281 55.108 599.3 55.108H595.812L596.532 54.356V58.5H594.932ZM596.532 54.516L595.812 53.716H599.252C600.276 53.716 601.049 53.4973 601.572 53.06C602.105 52.6227 602.372 52.004 602.372 51.204C602.372 50.404 602.105 49.7853 601.572 49.348C601.049 48.9107 600.276 48.692 599.252 48.692H595.812L596.532 47.892V54.516ZM611.284 58.5V56.708L611.204 56.372V53.316C611.204 52.6653 611.012 52.164 610.628 51.812C610.255 51.4493 609.69 51.268 608.932 51.268C608.431 51.268 607.94 51.3533 607.46 51.524C606.98 51.684 606.575 51.9027 606.244 52.18L605.604 51.028C606.042 50.676 606.564 50.4093 607.172 50.228C607.791 50.036 608.436 49.94 609.108 49.94C610.271 49.94 611.167 50.2227 611.796 50.788C612.426 51.3533 612.74 52.2173 612.74 53.38V58.5H611.284ZM608.5 58.596C607.871 58.596 607.316 58.4893 606.836 58.276C606.367 58.0627 606.004 57.7693 605.748 57.396C605.492 57.012 605.364 56.58 605.364 56.1C605.364 55.6413 605.471 55.2253 605.684 54.852C605.908 54.4787 606.266 54.18 606.756 53.956C607.258 53.732 607.93 53.62 608.772 53.62H611.46V54.724H608.836C608.068 54.724 607.551 54.852 607.284 55.108C607.018 55.364 606.884 55.6733 606.884 56.036C606.884 56.452 607.05 56.788 607.38 57.044C607.711 57.2893 608.17 57.412 608.756 57.412C609.332 57.412 609.834 57.284 610.26 57.028C610.698 56.772 611.012 56.3987 611.204 55.908L611.508 56.964C611.306 57.4653 610.948 57.8653 610.436 58.164C609.924 58.452 609.279 58.596 608.5 58.596ZM615.583 58.5V50.02H617.055V52.324L616.911 51.748C617.146 51.1613 617.54 50.7133 618.095 50.404C618.65 50.0947 619.332 49.94 620.143 49.94V51.428C620.079 51.4173 620.015 51.412 619.951 51.412C619.898 51.412 619.844 51.412 619.791 51.412C618.97 51.412 618.319 51.6573 617.839 52.148C617.359 52.6387 617.119 53.348 617.119 54.276V58.5H615.583ZM625.292 58.596C624.438 58.596 623.777 58.3667 623.308 57.908C622.838 57.4493 622.604 56.7933 622.604 55.94V48.164H624.14V55.876C624.14 56.3347 624.252 56.6867 624.476 56.932C624.71 57.1773 625.041 57.3 625.468 57.3C625.948 57.3 626.348 57.1667 626.668 56.9L627.148 58.004C626.913 58.2067 626.63 58.356 626.3 58.452C625.98 58.548 625.644 58.596 625.292 58.596ZM621.164 51.284V50.02H626.572V51.284H621.164ZM633.533 49.94C634.226 49.94 634.834 50.0733 635.357 50.34C635.89 50.6067 636.306 51.012 636.605 51.556C636.903 52.1 637.053 52.788 637.053 53.62V58.5H635.517V53.796C635.517 52.9747 635.314 52.356 634.909 51.94C634.514 51.524 633.954 51.316 633.229 51.316C632.685 51.316 632.21 51.4227 631.805 51.636C631.399 51.8493 631.085 52.164 630.861 52.58C630.647 52.996 630.541 53.5133 630.541 54.132V58.5H629.005V50.02H630.477V52.308L630.237 51.7C630.514 51.1453 630.941 50.7133 631.517 50.404C632.093 50.0947 632.765 49.94 633.533 49.94ZM643.671 58.596C642.765 58.596 641.965 58.4093 641.271 58.036C640.589 57.6627 640.055 57.1507 639.671 56.5C639.298 55.8493 639.111 55.1027 639.111 54.26C639.111 53.4173 639.293 52.6707 639.655 52.02C640.029 51.3693 640.535 50.8627 641.175 50.5C641.826 50.1267 642.557 49.94 643.367 49.94C644.189 49.94 644.914 50.1213 645.543 50.484C646.173 50.8467 646.663 51.3587 647.015 52.02C647.378 52.6707 647.559 53.4333 647.559 54.308C647.559 54.372 647.554 54.4467 647.543 54.532C647.543 54.6173 647.538 54.6973 647.527 54.772H640.311V53.668H646.727L646.103 54.052C646.114 53.508 646.002 53.0227 645.767 52.596C645.533 52.1693 645.207 51.8387 644.791 51.604C644.386 51.3587 643.911 51.236 643.367 51.236C642.834 51.236 642.359 51.3587 641.943 51.604C641.527 51.8387 641.202 52.1747 640.967 52.612C640.733 53.0387 640.615 53.5293 640.615 54.084V54.34C640.615 54.9053 640.743 55.412 640.999 55.86C641.266 56.2973 641.634 56.6387 642.103 56.884C642.573 57.1293 643.111 57.252 643.719 57.252C644.221 57.252 644.674 57.1667 645.079 56.996C645.495 56.8253 645.858 56.5693 646.167 56.228L647.015 57.22C646.631 57.668 646.151 58.0093 645.575 58.244C645.01 58.4787 644.375 58.596 643.671 58.596ZM649.692 58.5V50.02H651.164V52.324L651.02 51.748C651.255 51.1613 651.65 50.7133 652.204 50.404C652.759 50.0947 653.442 49.94 654.252 49.94V51.428C654.188 51.4173 654.124 51.412 654.06 51.412C654.007 51.412 653.954 51.412 653.9 51.412C653.079 51.412 652.428 51.6573 651.948 52.148C651.468 52.6387 651.228 53.348 651.228 54.276V58.5H649.692ZM658.671 58.596C657.967 58.596 657.295 58.5 656.655 58.308C656.026 58.116 655.53 57.8813 655.167 57.604L655.807 56.388C656.17 56.6333 656.618 56.8413 657.151 57.012C657.685 57.1827 658.229 57.268 658.783 57.268C659.498 57.268 660.01 57.1667 660.319 56.964C660.639 56.7613 660.799 56.4787 660.799 56.116C660.799 55.8493 660.703 55.6413 660.511 55.492C660.319 55.3427 660.063 55.2307 659.743 55.156C659.434 55.0813 659.087 55.0173 658.703 54.964C658.319 54.9 657.935 54.8253 657.551 54.74C657.167 54.644 656.815 54.516 656.495 54.356C656.175 54.1853 655.919 53.956 655.727 53.668C655.535 53.3693 655.439 52.9747 655.439 52.484C655.439 51.972 655.583 51.524 655.871 51.14C656.159 50.756 656.565 50.4627 657.087 50.26C657.621 50.0467 658.25 49.94 658.975 49.94C659.53 49.94 660.09 50.0093 660.655 50.148C661.231 50.276 661.701 50.4627 662.063 50.708L661.407 51.924C661.023 51.668 660.623 51.492 660.207 51.396C659.791 51.3 659.375 51.252 658.959 51.252C658.287 51.252 657.786 51.364 657.455 51.588C657.125 51.8013 656.959 52.0787 656.959 52.42C656.959 52.708 657.055 52.932 657.247 53.092C657.45 53.2413 657.706 53.3587 658.015 53.444C658.335 53.5293 658.687 53.604 659.071 53.668C659.455 53.7213 659.839 53.796 660.223 53.892C660.607 53.9773 660.954 54.1 661.263 54.26C661.583 54.42 661.839 54.644 662.031 54.932C662.234 55.22 662.335 55.604 662.335 56.084C662.335 56.596 662.186 57.0387 661.887 57.412C661.589 57.7853 661.167 58.0787 660.623 58.292C660.079 58.4947 659.429 58.596 658.671 58.596Z" fill="#5C6366"/>
<path d="M719.94 58.628C719.087 58.628 718.297 58.4893 717.572 58.212C716.857 57.924 716.233 57.524 715.7 57.012C715.177 56.4893 714.767 55.8813 714.468 55.188C714.169 54.4947 714.02 53.732 714.02 52.9C714.02 52.068 714.169 51.3053 714.468 50.612C714.767 49.9187 715.183 49.316 715.716 48.804C716.249 48.2813 716.873 47.8813 717.588 47.604C718.313 47.316 719.103 47.172 719.956 47.172C720.82 47.172 721.615 47.3213 722.34 47.62C723.076 47.908 723.7 48.34 724.212 48.916L723.172 49.924C722.745 49.476 722.265 49.1453 721.732 48.932C721.199 48.708 720.628 48.596 720.02 48.596C719.391 48.596 718.804 48.7027 718.26 48.916C717.727 49.1293 717.263 49.428 716.868 49.812C716.473 50.196 716.164 50.6547 715.94 51.188C715.727 51.7107 715.62 52.2813 715.62 52.9C715.62 53.5187 715.727 54.0947 715.94 54.628C716.164 55.1507 716.473 55.604 716.868 55.988C717.263 56.372 717.727 56.6707 718.26 56.884C718.804 57.0973 719.391 57.204 720.02 57.204C720.628 57.204 721.199 57.0973 721.732 56.884C722.265 56.66 722.745 56.3187 723.172 55.86L724.212 56.868C723.7 57.444 723.076 57.8813 722.34 58.18C721.615 58.4787 720.815 58.628 719.94 58.628ZM729.543 58.596C728.69 58.596 727.932 58.4093 727.271 58.036C726.61 57.6627 726.087 57.1507 725.703 56.5C725.319 55.8387 725.127 55.092 725.127 54.26C725.127 53.4173 725.319 52.6707 725.703 52.02C726.087 51.3693 726.61 50.8627 727.271 50.5C727.932 50.1267 728.69 49.94 729.543 49.94C730.386 49.94 731.138 50.1267 731.799 50.5C732.471 50.8627 732.994 51.3693 733.367 52.02C733.751 52.66 733.943 53.4067 733.943 54.26C733.943 55.1027 733.751 55.8493 733.367 56.5C732.994 57.1507 732.471 57.6627 731.799 58.036C731.138 58.4093 730.386 58.596 729.543 58.596ZM729.543 57.252C730.087 57.252 730.572 57.1293 730.999 56.884C731.436 56.6387 731.778 56.292 732.023 55.844C732.268 55.3853 732.391 54.8573 732.391 54.26C732.391 53.652 732.268 53.1293 732.023 52.692C731.778 52.244 731.436 51.8973 730.999 51.652C730.572 51.4067 730.087 51.284 729.543 51.284C728.999 51.284 728.514 51.4067 728.087 51.652C727.66 51.8973 727.319 52.244 727.063 52.692C726.807 53.1293 726.679 53.652 726.679 54.26C726.679 54.8573 726.807 55.3853 727.063 55.844C727.319 56.292 727.66 56.6387 728.087 56.884C728.514 57.1293 728.999 57.252 729.543 57.252ZM740.595 49.94C741.289 49.94 741.897 50.0733 742.419 50.34C742.953 50.6067 743.369 51.012 743.667 51.556C743.966 52.1 744.115 52.788 744.115 53.62V58.5H742.579V53.796C742.579 52.9747 742.377 52.356 741.971 51.94C741.577 51.524 741.017 51.316 740.291 51.316C739.747 51.316 739.273 51.4227 738.867 51.636C738.462 51.8493 738.147 52.164 737.923 52.58C737.71 52.996 737.603 53.5133 737.603 54.132V58.5H736.067V50.02H737.539V52.308L737.299 51.7C737.577 51.1453 738.003 50.7133 738.579 50.404C739.155 50.0947 739.827 49.94 740.595 49.94ZM749.87 58.596C749.017 58.596 748.355 58.3667 747.886 57.908C747.417 57.4493 747.182 56.7933 747.182 55.94V48.164H748.718V55.876C748.718 56.3347 748.83 56.6867 749.054 56.932C749.289 57.1773 749.619 57.3 750.046 57.3C750.526 57.3 750.926 57.1667 751.246 56.9L751.726 58.004C751.491 58.2067 751.209 58.356 750.878 58.452C750.558 58.548 750.222 58.596 749.87 58.596ZM745.742 51.284V50.02H751.15V51.284H745.742ZM758.847 58.5V56.708L758.767 56.372V53.316C758.767 52.6653 758.575 52.164 758.191 51.812C757.818 51.4493 757.252 51.268 756.495 51.268C755.994 51.268 755.503 51.3533 755.023 51.524C754.543 51.684 754.138 51.9027 753.807 52.18L753.167 51.028C753.604 50.676 754.127 50.4093 754.735 50.228C755.354 50.036 755.999 49.94 756.671 49.94C757.834 49.94 758.73 50.2227 759.359 50.788C759.988 51.3533 760.303 52.2173 760.303 53.38V58.5H758.847ZM756.063 58.596C755.434 58.596 754.879 58.4893 754.399 58.276C753.93 58.0627 753.567 57.7693 753.311 57.396C753.055 57.012 752.927 56.58 752.927 56.1C752.927 55.6413 753.034 55.2253 753.247 54.852C753.471 54.4787 753.828 54.18 754.319 53.956C754.82 53.732 755.492 53.62 756.335 53.62H759.023V54.724H756.399C755.631 54.724 755.114 54.852 754.847 55.108C754.58 55.364 754.447 55.6733 754.447 56.036C754.447 56.452 754.612 56.788 754.943 57.044C755.274 57.2893 755.732 57.412 756.319 57.412C756.895 57.412 757.396 57.284 757.823 57.028C758.26 56.772 758.575 56.3987 758.767 55.908L759.071 56.964C758.868 57.4653 758.511 57.8653 757.999 58.164C757.487 58.452 756.842 58.596 756.063 58.596ZM766.841 58.596C765.977 58.596 765.204 58.4093 764.521 58.036C763.849 57.6627 763.321 57.1507 762.937 56.5C762.553 55.8493 762.361 55.1027 762.361 54.26C762.361 53.4173 762.553 52.6707 762.937 52.02C763.321 51.3693 763.849 50.8627 764.521 50.5C765.204 50.1267 765.977 49.94 766.841 49.94C767.609 49.94 768.292 50.0947 768.889 50.404C769.497 50.7027 769.967 51.1507 770.297 51.748L769.129 52.5C768.852 52.084 768.511 51.78 768.105 51.588C767.711 51.3853 767.284 51.284 766.825 51.284C766.271 51.284 765.775 51.4067 765.337 51.652C764.9 51.8973 764.553 52.244 764.297 52.692C764.041 53.1293 763.913 53.652 763.913 54.26C763.913 54.868 764.041 55.396 764.297 55.844C764.553 56.292 764.9 56.6387 765.337 56.884C765.775 57.1293 766.271 57.252 766.825 57.252C767.284 57.252 767.711 57.156 768.105 56.964C768.511 56.7613 768.852 56.452 769.129 56.036L770.297 56.772C769.967 57.3587 769.497 57.812 768.889 58.132C768.292 58.4413 767.609 58.596 766.841 58.596ZM775.307 58.596C774.454 58.596 773.793 58.3667 773.323 57.908C772.854 57.4493 772.619 56.7933 772.619 55.94V48.164H774.155V55.876C774.155 56.3347 774.267 56.6867 774.491 56.932C774.726 57.1773 775.057 57.3 775.483 57.3C775.963 57.3 776.363 57.1667 776.683 56.9L777.163 58.004C776.929 58.2067 776.646 58.356 776.315 58.452C775.995 58.548 775.659 58.596 775.307 58.596ZM771.179 51.284V50.02H776.587V51.284H771.179Z" fill="#5C6366"/>
</g>
<defs>
<filter id="filter0_b_7_585" x="-140" y="-140" width="1720" height="383" filterUnits="userSpaceOnUse" color-interpolation-filters="sRGB">
<feFlood flood-opacity="0" result="BackgroundImageFix"/>
<feGaussianBlur in="BackgroundImageFix" stdDeviation="70"/>
<feComposite in2="SourceAlpha" operator="in" result="effect1_backgroundBlur_7_585"/>
<feBlend mode="normal" in="SourceGraphic" in2="effect1_backgroundBlur_7_585" result="shape"/>
</filter>
</defs>
</svg>
