<svg width="1440" height="788" viewBox="0 0 1440 788" fill="none" xmlns="http://www.w3.org/2000/svg">
<g filter="url(#filter0_b_7_143)">
<rect width="1440" height="788" fill="white" fill-opacity="0.7"/>
</g>
<mask id="mask0_7_143" style="mask-type:alpha" maskUnits="userSpaceOnUse" x="0" y="0" width="1440" height="787">
<path d="M0 0H1440V787H0V0Z" fill="white" fill-opacity="0.7"/>
</mask>
<g mask="url(#mask0_7_143)">
<g opacity="0.2" clip-path="url(#clip0_7_143)">
<path d="M223.301 527.439C230.659 527.439 236.658 533.665 236.658 541.343C236.658 549.022 230.659 555.247 223.301 555.247C215.944 555.247 209.944 549.002 209.944 541.343C209.944 533.684 215.944 527.439 223.301 527.439ZM223.301 551.241C228.546 551.241 232.791 546.802 232.791 541.343C232.791 535.884 228.527 531.445 223.301 531.445C218.076 531.445 213.812 535.884 213.812 541.343C213.812 546.802 218.057 551.221 223.301 551.221V551.241Z" fill="#1A97D4"/>
</g>
<g opacity="0.2" clip-path="url(#clip1_7_143)">
<path d="M227.289 69.4371C232.108 75.2245 231.519 84.0209 225.945 89.0501C220.371 94.0793 211.922 93.4378 207.103 87.6503C202.284 81.8629 202.888 73.0537 208.448 68.0373C214.008 63.0209 222.47 63.6497 227.289 69.4371ZM210.011 85.0264C213.446 89.1518 219.448 89.5838 223.412 86.008C227.375 82.4322 227.804 76.1716 224.381 72.061C220.958 67.9505 214.944 67.5036 210.981 71.0794C207.018 74.6552 206.59 80.8881 210.026 85.0135L210.011 85.0264Z" fill="#1A97D4"/>
</g>
<g opacity="0.2" clip-path="url(#clip2_7_143)">
<path d="M1202.81 368.54C1210.16 368.54 1216.16 374.765 1216.16 382.443C1216.16 390.122 1210.16 396.347 1202.81 396.347C1195.45 396.347 1189.45 390.102 1189.45 382.443C1189.45 374.785 1195.45 368.54 1202.81 368.54ZM1202.81 392.341C1208.05 392.341 1212.3 387.903 1212.3 382.443C1212.3 376.984 1208.03 372.546 1202.81 372.546C1197.58 372.546 1193.32 376.984 1193.32 382.443C1193.32 387.903 1197.56 392.321 1202.81 392.321V392.341Z" fill="#1A97D4"/>
</g>
<g opacity="0.2" clip-path="url(#clip3_7_143)">
<path d="M1074.19 642.865C1079.01 648.652 1078.42 657.449 1072.85 662.478C1067.27 667.507 1058.82 666.865 1054 661.078C1049.18 655.291 1049.79 646.481 1055.35 641.465C1060.91 636.449 1069.37 637.077 1074.19 642.865ZM1056.91 658.454C1060.35 662.58 1066.35 663.012 1070.31 659.436C1074.28 655.86 1074.7 649.599 1071.28 645.489C1067.86 641.378 1061.84 640.931 1057.88 644.507C1053.92 648.083 1053.49 654.316 1056.93 658.441L1056.91 658.454Z" fill="#1A97D4"/>
</g>
<g opacity="0.2" clip-path="url(#clip4_7_143)">
<path d="M324.219 576.203L315.501 553.751C314.67 551.6 311.938 551.254 310.608 553.108L296.522 572.543C295.168 574.398 296.213 577.093 298.398 577.365L321.178 580.406C323.363 580.678 325.05 578.354 324.219 576.203Z" fill="#1A97D4"/>
</g>
<g opacity="0.2" clip-path="url(#clip5_7_143)">
<path d="M107.987 180.756L118.576 159.194C119.593 157.131 118.055 154.755 115.837 154.924L92.5031 156.573C90.2701 156.723 88.9981 159.31 90.232 161.207L102.944 181.118C104.178 183.015 106.97 182.819 107.987 180.756Z" fill="#1A97D4"/>
</g>
<g opacity="0.2" clip-path="url(#clip6_7_143)">
<path d="M1293.02 254.277L1279.02 234.94C1277.68 233.086 1274.96 233.487 1274.13 235.637L1265.36 258.205C1264.51 260.361 1266.19 262.682 1268.37 262.356L1291.13 259.157C1293.31 258.831 1294.36 256.131 1293.02 254.277Z" fill="#1A97D4"/>
</g>
<g opacity="0.2" clip-path="url(#clip7_7_143)">
<path d="M1216.23 638.989L1221.09 615.309C1221.56 613.042 1219.49 611.162 1217.39 611.922L1195.26 619.802C1193.14 620.548 1192.55 623.39 1194.21 624.89L1211.44 640.697C1213.11 642.197 1215.76 641.255 1216.23 638.989Z" fill="#1A97D4"/>
</g>
<g opacity="0.2">
<g clip-path="url(#clip8_7_143)">
<path d="M1160.65 87.5934C1159.51 88.2376 1158.83 89.1603 1158.66 90.4835C1158.57 91.1277 1158.43 91.7893 1158.3 92.4334C1158.02 93.8088 1157.75 95.1843 1157.45 96.5423C1157.24 97.4302 1156.73 98.144 1156.12 98.7882C1155.26 99.6935 1154.31 100.442 1153.24 101.052C1149.15 103.384 1145.06 105.717 1140.97 108.05C1140.34 108.399 1139.71 108.747 1139.04 109.095C1138.7 100.077 1138.36 91.0406 1138 81.9873C1136.95 82.5793 1136.16 83.3975 1135.53 84.3899C1134.78 85.5564 1134.32 86.8448 1134.1 88.2376C1133.79 90.0308 1133.45 91.8067 1133.13 93.5999C1133.08 93.8959 1133.01 94.1745 1132.98 94.4704C1132.96 94.6794 1132.86 94.8012 1132.67 94.9057C1132.02 95.2539 1131.39 95.6195 1130.76 95.9851C1130.28 96.2637 1130.18 96.7338 1130.45 97.2735C1130.66 97.6913 1131.15 97.8306 1131.6 97.6043C1131.87 97.465 1132.12 97.2909 1132.46 97.0994C1132.36 97.6565 1132.29 98.144 1132.21 98.6315C1131.97 99.9373 1131.75 101.243 1131.51 102.549C1131.48 102.688 1131.37 102.845 1131.25 102.914C1130.71 103.28 1130.15 103.646 1129.6 103.994C1129.19 104.255 1129.07 104.708 1129.3 105.178C1129.52 105.63 1129.93 105.804 1130.39 105.613C1130.61 105.526 1130.81 105.387 1131.08 105.247C1130.95 106.031 1130.81 106.762 1130.68 107.476C1130.25 109.757 1129.82 112.037 1129.41 114.336C1129.38 114.544 1129.26 114.614 1129.11 114.701C1126.55 116.146 1123.98 117.591 1121.44 119.054C1120.14 119.785 1118.95 120.655 1118 121.822C1117.44 122.518 1116.99 123.284 1116.92 124.225C1116.87 124.747 1116.96 124.869 1117.42 125.112C1118.44 125.635 1119.51 125.583 1120.6 125.356C1122.19 125.043 1123.62 124.346 1125.02 123.546C1127.32 122.24 1129.62 120.951 1131.92 119.646C1132.02 119.593 1132.18 119.576 1132.28 119.611C1134.02 120.29 1135.77 120.986 1137.51 121.683C1138.43 122.048 1139.37 122.414 1140.29 122.797C1140.42 122.849 1140.56 122.919 1140.73 123.058C1140.54 123.145 1140.35 123.232 1140.17 123.319C1139.76 123.546 1139.6 123.981 1139.79 124.433C1139.98 124.904 1140.35 125.112 1140.81 124.991C1140.95 124.956 1141.09 124.886 1141.22 124.799C1141.73 124.52 1142.25 124.207 1142.77 123.929C1142.88 123.876 1143.03 123.841 1143.13 123.876C1144.78 124.503 1146.42 125.147 1148.06 125.791C1148.09 125.791 1148.12 125.826 1148.21 125.878C1147.92 126.035 1147.65 126.174 1147.39 126.331C1146.91 126.61 1146.8 127.08 1147.09 127.602C1147.31 128.037 1147.78 128.177 1148.24 127.933C1148.89 127.585 1149.52 127.219 1150.15 126.853C1150.34 126.749 1150.48 126.749 1150.68 126.819C1152.79 127.672 1154.91 128.56 1157.04 129.361C1159.15 130.144 1161.3 130.231 1163.39 129.239C1163.46 129.204 1163.51 129.169 1163.58 129.134C1163.6 129.134 1163.63 129.099 1163.68 129.047C1156.35 123.963 1149.06 118.88 1141.72 113.761C1141.85 113.691 1141.94 113.622 1142.04 113.569C1146.34 111.149 1150.63 108.729 1154.91 106.292C1156.07 105.63 1157.22 105.004 1158.52 104.638C1159.46 104.377 1160.43 104.168 1161.4 104.394C1162.05 104.551 1162.66 104.812 1163.29 105.038C1164.55 105.509 1165.81 105.979 1167.07 106.449C1167.57 106.623 1168.06 106.832 1168.57 106.936C1169.34 107.093 1170.31 106.867 1170.94 106.449C1170.29 105.717 1169.65 104.986 1169.02 104.255C1167.31 102.322 1165.61 100.39 1163.92 98.4574C1163.78 98.3007 1163.68 98.1092 1163.63 97.9177C1162.68 94.5575 1161.74 91.1973 1160.8 87.8546C1160.79 87.7849 1160.75 87.6979 1160.72 87.5934H1160.65Z" fill="#1A97D4"/>
</g>
<g clip-path="url(#clip9_7_143)">
<path d="M1528.32 157.447C1528.32 157.447 1491.72 243.017 1421.64 196.377C1351.55 149.747 1287.79 14.0873 1174.17 90.2173" stroke="#1A97D4" stroke-width="2" stroke-miterlimit="10" stroke-dasharray="13 2"/>
</g>
</g>
<g opacity="0.2">
<g clip-path="url(#clip10_7_143)">
<path d="M217.461 718.05C217.474 716.739 217.015 715.687 215.955 714.878C215.439 714.482 214.934 714.033 214.445 713.593C213.39 712.669 212.335 711.746 211.312 710.801C210.646 710.18 210.283 709.38 210.032 708.527C209.674 707.336 209.503 706.136 209.512 704.901C209.536 700.193 209.561 695.485 209.585 690.777C209.599 690.057 209.612 689.336 209.643 688.587C217.624 692.801 225.619 697.024 233.639 701.241C233.654 700.03 233.338 698.942 232.793 697.899C232.158 696.667 231.272 695.624 230.177 694.736C228.777 693.574 227.41 692.391 226.019 691.214C225.788 691.021 225.581 690.823 225.341 690.646C225.169 690.526 225.115 690.377 225.118 690.162C225.14 689.427 225.139 688.699 225.137 687.97C225.135 687.417 224.779 687.094 224.175 687.06C223.711 687.028 223.343 687.387 223.318 687.883C223.302 688.189 223.325 688.498 223.32 688.888C222.889 688.521 222.501 688.219 222.121 687.901C221.11 687.042 220.09 686.197 219.078 685.337C218.975 685.238 218.89 685.071 218.889 684.933C218.845 684.278 218.81 683.608 218.781 682.962C218.759 682.477 218.427 682.148 217.909 682.104C217.406 682.07 217.051 682.337 216.987 682.831C216.951 683.067 216.97 683.313 216.954 683.619C216.344 683.109 215.779 682.626 215.229 682.151C213.466 680.641 211.704 679.132 209.918 677.629C209.755 677.495 209.754 677.357 209.755 677.18C209.782 674.244 209.817 671.293 209.82 668.363C209.834 666.876 209.677 665.408 209.143 663.998C208.822 663.163 208.38 662.396 207.6 661.867C207.173 661.562 207.025 661.575 206.583 661.851C205.62 662.476 205.128 663.431 204.779 664.489C204.258 666.018 204.146 667.606 204.141 669.216C204.121 671.862 204.087 674.498 204.067 677.143C204.061 677.258 204 677.399 203.919 677.47C202.461 678.636 200.981 679.808 199.509 680.965C198.732 681.579 197.947 682.208 197.155 682.813C197.042 682.905 196.913 682.988 196.707 683.066C196.726 682.86 196.744 682.655 196.762 682.449C196.771 681.981 196.47 681.631 195.985 681.567C195.484 681.494 195.116 681.714 194.991 682.174C194.953 682.309 194.945 682.462 194.952 682.624C194.938 683.206 194.954 683.805 194.931 684.402C194.925 684.517 194.879 684.667 194.797 684.738C193.428 685.856 192.052 686.951 190.676 688.045C190.659 688.075 190.612 688.087 190.524 688.134C190.533 687.805 190.549 687.499 190.541 687.2C190.539 686.647 190.191 686.309 189.594 686.299C189.106 686.273 188.747 686.616 188.728 687.137C188.706 687.872 188.707 688.6 188.709 689.329C188.705 689.544 188.637 689.662 188.475 689.804C186.679 691.208 184.854 692.593 183.095 694.038C181.36 695.476 180.212 697.292 180.023 699.603C180.019 699.679 180.024 699.741 180.02 699.818C180.011 699.832 180.024 699.879 180.044 699.95C188.11 696.146 196.16 692.372 204.265 688.571C204.257 688.724 204.274 688.832 204.269 688.947C204.217 693.876 204.166 698.805 204.138 703.727C204.132 705.062 204.095 706.378 203.765 707.683C203.522 708.625 203.217 709.571 202.536 710.299C202.076 710.781 201.543 711.182 201.032 711.615C199.995 712.472 198.957 713.329 197.919 714.186C197.522 714.526 197.094 714.85 196.747 715.24C196.228 715.826 195.939 716.78 195.985 717.535C196.942 717.34 197.899 717.145 198.848 716.965C201.374 716.455 203.899 715.946 206.416 715.451C206.62 715.411 206.837 715.419 207.028 715.47C210.416 716.324 213.794 717.192 217.158 718.052C217.227 718.072 217.319 718.086 217.427 718.109L217.461 718.05Z" fill="#1A97D4"/>
</g>
<g clip-path="url(#clip11_7_143)">
<path d="M206.343 731.509C163.522 872.784 68.069 599.962 -9.52063 673.401" stroke="#1A97D4" stroke-width="2" stroke-miterlimit="10" stroke-dasharray="13 2"/>
</g>
</g>
</g>
<defs>
<filter id="filter0_b_7_143" x="-140" y="-140" width="1720" height="1068" filterUnits="userSpaceOnUse" color-interpolation-filters="sRGB">
<feFlood flood-opacity="0" result="BackgroundImageFix"/>
<feGaussianBlur in="BackgroundImageFix" stdDeviation="70"/>
<feComposite in2="SourceAlpha" operator="in" result="effect1_backgroundBlur_7_143"/>
<feBlend mode="normal" in="SourceGraphic" in2="effect1_backgroundBlur_7_143" result="shape"/>
</filter>
<clipPath id="clip0_7_143">
<rect width="26.7138" height="27.8076" fill="white" transform="matrix(-1 0 0 -1 236.658 555.247)"/>
</clipPath>
<clipPath id="clip1_7_143">
<rect width="27.3437" height="27.1884" fill="white" transform="matrix(-0.639886 -0.76847 0.74246 -0.66989 215.852 98.1567)"/>
</clipPath>
<clipPath id="clip2_7_143">
<rect width="26.7138" height="27.8076" fill="white" transform="matrix(-1 0 0 -1 1216.16 396.347)"/>
</clipPath>
<clipPath id="clip3_7_143">
<rect width="27.3437" height="27.1884" fill="white" transform="matrix(-0.639886 -0.76847 0.74246 -0.66989 1062.75 671.584)"/>
</clipPath>
<clipPath id="clip4_7_143">
<rect width="28.5044" height="28.5094" fill="white" transform="matrix(-1 0 0 -1 324.433 580.407)"/>
</clipPath>
<clipPath id="clip5_7_143">
<rect width="29.1766" height="27.8746" fill="white" transform="matrix(-0.639886 -0.76847 0.74246 -0.66989 105.076 183.678)"/>
</clipPath>
<clipPath id="clip6_7_143">
<rect width="28.5841" height="28.4356" fill="white" transform="matrix(-0.963234 0.268665 -0.249283 -0.968431 1294.28 258.28)"/>
</clipPath>
<clipPath id="clip7_7_143">
<rect width="28.876" height="28.162" fill="white" transform="matrix(-0.817576 -0.575821 0.54498 -0.838449 1214.14 642.596)"/>
</clipPath>
<clipPath id="clip8_7_143">
<rect width="54" height="48" fill="white" transform="translate(1116.89 81.9873)"/>
</clipPath>
<clipPath id="clip9_7_143">
<rect width="354.89" height="143.8" fill="white" transform="translate(1173.89 66.9873)"/>
</clipPath>
<clipPath id="clip10_7_143">
<rect width="54" height="48" fill="white" transform="translate(244.195 682.956) rotate(120)"/>
</clipPath>
<clipPath id="clip11_7_143">
<rect width="425.124" height="172.259" fill="white" transform="translate(0.109375 645.012) rotate(0.0365667)"/>
</clipPath>
</defs>
</svg>
