<svg width="20" height="20" viewBox="0 0 20 20" fill="none" xmlns="http://www.w3.org/2000/svg">
<path d="M17.6247 7.5H15.7538L15.2338 6.2C14.6994 4.86344 13.4241 4 11.9844 4H8.01563C6.57626 4 5.30063 4.86344 4.76595 6.2L4.24595 7.5H2.37532C2.13126 7.5 1.9522 7.72937 2.01157 7.96594L2.19907 8.71594C2.24063 8.88281 2.39063 9 2.56282 9H3.19001C2.77032 9.36656 2.50001 9.89937 2.50001 10.5V12C2.50001 12.5037 2.69251 12.9584 3.00001 13.3103V15C3.00001 15.5522 3.44782 16 4.00001 16H5.00001C5.5522 16 6.00001 15.5522 6.00001 15V14H14V15C14 15.5522 14.4478 16 15 16H16C16.5522 16 17 15.5522 17 15V13.3103C17.3075 12.9587 17.5 12.5041 17.5 12V10.5C17.5 9.89937 17.2297 9.36656 16.8103 9H17.4375C17.6097 9 17.7597 8.88281 17.8013 8.71594L17.9888 7.96594C18.0478 7.72937 17.8688 7.5 17.6247 7.5ZM6.62282 6.94281C6.85063 6.37344 7.4022 6 8.01563 6H11.9844C12.5978 6 13.1494 6.37344 13.3772 6.94281L14 8.5H6.00001L6.62282 6.94281ZM5.00001 11.9937C4.40001 11.9937 4.00001 11.595 4.00001 10.9969C4.00001 10.3987 4.40001 10 5.00001 10C5.60001 10 6.50001 10.8972 6.50001 11.4953C6.50001 12.0934 5.60001 11.9937 5.00001 11.9937ZM15 11.9937C14.4 11.9937 13.5 12.0934 13.5 11.4953C13.5 10.8972 14.4 10 15 10C15.6 10 16 10.3987 16 10.9969C16 11.595 15.6 11.9937 15 11.9937Z" fill="#A1ADB2"/>
</svg>
