<svg width="386" height="20" viewBox="0 0 386 20" fill="none" xmlns="http://www.w3.org/2000/svg">
<path d="M386 10C386 10 302.087 10 186.545 10C105.214 10 169.117 10 0 10" stroke="#1A97D4" stroke-opacity="0.2" stroke-width="1.5" stroke-miterlimit="10" stroke-dasharray="10 4"/>
<path d="M200.548 7.49902H196.056L191.955 0.350586C191.837 0.155273 191.642 -0.000976562 191.408 -0.000976562H188.869C188.439 -0.000976562 188.126 0.428711 188.244 0.819336L190.158 7.49902H186.173L184.455 5.27246C184.337 5.11621 184.181 4.99902 183.986 4.99902H182.423C181.994 4.99902 181.681 5.38965 181.798 5.78027L183.048 9.99902L181.798 14.2568C181.681 14.6475 181.994 14.999 182.423 14.999H183.986C184.181 14.999 184.337 14.9209 184.455 14.7646L186.173 12.499H190.158L188.244 19.2178C188.126 19.6084 188.439 19.999 188.869 19.999H191.408C191.642 19.999 191.837 19.8818 191.955 19.6865L196.056 12.499H200.548C201.915 12.499 204.298 11.4053 204.298 9.99902C204.298 8.63183 201.915 7.49902 200.548 7.49902Z" fill="#1A97D4"/>
</svg>
