<svg width="30" height="148" viewBox="0 0 30 148" fill="none" xmlns="http://www.w3.org/2000/svg">
<path d="M15 148C15 148 15 115.826 15 71.5252C15 40.3412 15 64.8429 15 6.10352e-05" stroke="#E1EDF2" stroke-width="1.5" stroke-miterlimit="10" stroke-dasharray="4 4"/>
<rect width="30" height="30" transform="translate(30 59.0001) rotate(90)" fill="white"/>
<path d="M17.501 81.5483L17.501 77.0561L24.6494 72.9546C24.8447 72.8374 25.001 72.6421 25.001 72.4077L25.001 69.8686C25.001 69.439 24.5713 69.1265 24.1807 69.2436L17.501 71.1577L17.501 67.1733L19.7275 65.4546C19.8838 65.3374 20.001 65.1811 20.001 64.9858L20.001 63.4233C20.001 62.9936 19.6104 62.6811 19.2197 62.7983L15.001 64.0483L10.7432 62.7983C10.3525 62.6811 10.001 62.9936 10.001 63.4233L10.001 64.9858C10.001 65.1811 10.0791 65.3374 10.2354 65.4546L12.501 67.1733L12.501 71.1577L5.78223 69.2436C5.39161 69.1265 5.00098 69.439 5.00098 69.8686L5.00098 72.4077C5.00098 72.6421 5.11817 72.8374 5.31348 72.9546L12.501 77.0561L12.501 81.5483C12.501 82.9155 13.5947 85.2983 15.001 85.2983C16.3682 85.2983 17.501 82.9155 17.501 81.5483Z" fill="#1A97D4"/>
</svg>
