<svg width="401" height="30" viewBox="0 0 401 30" fill="none" xmlns="http://www.w3.org/2000/svg">
<path d="M390 15C390 15 306.087 15 190.545 15C109.214 15 173.117 15 4 15" stroke="#1A97D4" stroke-opacity="0.2" stroke-width="1.5" stroke-miterlimit="10" stroke-dasharray="10 4"/>
<rect width="30" height="30" transform="translate(182)" fill="white"/>
<path d="M204.548 12.499H200.056L195.955 5.35059C195.837 5.15527 195.642 4.99902 195.408 4.99902H192.869C192.439 4.99902 192.126 5.42871 192.244 5.81934L194.158 12.499H190.173L188.455 10.2725C188.337 10.1162 188.181 9.99902 187.986 9.99902H186.423C185.994 9.99902 185.681 10.3896 185.798 10.7803L187.048 14.999L185.798 19.2568C185.681 19.6475 185.994 19.999 186.423 19.999H187.986C188.181 19.999 188.337 19.9209 188.455 19.7646L190.173 17.499H194.158L192.244 24.2178C192.126 24.6084 192.439 24.999 192.869 24.999H195.408C195.642 24.999 195.837 24.8818 195.955 24.6865L200.056 17.499H204.548C205.915 17.499 208.298 16.4053 208.298 14.999C208.298 13.6318 205.915 12.499 204.548 12.499Z" fill="#1A97D4"/>
<circle cx="6" cy="15" r="5.5" fill="#F2FBFF" stroke="#1A97D4"/>
<circle cx="395" cy="15" r="5.5" fill="#F2FBFF" stroke="#1A97D4"/>
<circle cx="6" cy="15" r="3" fill="#1A97D4"/>
<circle cx="395" cy="15" r="3" fill="#1A97D4"/>
</svg>
