<svg width="55" height="54" viewBox="0 0 55 54" fill="none" xmlns="http://www.w3.org/2000/svg">
<rect x="0.210327" width="54" height="54" rx="27" fill="#E1EDF2"/>
<path d="M27.1449 23.6004C28.4975 23.6004 29.7947 23.0631 30.7511 22.1066C31.7075 21.1502 32.2449 19.853 32.2449 18.5004C32.2449 17.1478 31.7075 15.8506 30.7511 14.8941C29.7947 13.9377 28.4975 13.4004 27.1449 13.4004C25.7923 13.4004 24.495 13.9377 23.5386 14.8941C22.5822 15.8506 22.0449 17.1478 22.0449 18.5004C22.0449 19.853 22.5822 21.1502 23.5386 22.1066C24.495 23.0631 25.7923 23.6004 27.1449 23.6004ZM17.9904 37.928C17.6571 37.7203 17.3893 37.4224 17.2182 37.069C17.047 36.7155 16.9794 36.3208 17.0231 35.9305C17.3365 33.4673 18.5373 31.2029 20.4006 29.5616C22.2639 27.9204 24.6618 27.0149 27.1449 27.0149C29.6279 27.0149 32.0258 27.9204 33.8891 29.5616C35.7524 31.2029 36.9533 33.4673 37.2667 35.9305C37.3653 36.7244 36.9743 37.4945 36.2977 37.9263C33.5662 39.6767 30.3891 40.6049 27.1449 40.6004C23.9002 40.6058 20.7225 39.6781 17.9904 37.928Z" fill="white"/>
</svg>
