<svg width="12" height="16" viewBox="0 0 12 16" fill="none" xmlns="http://www.w3.org/2000/svg">
<path d="M5.9653 6.19999C6.68138 6.19999 7.36814 5.91552 7.87449 5.40918C8.38083 4.90283 8.6653 4.21607 8.6653 3.49999C8.6653 2.7839 8.38083 2.09715 7.87449 1.5908C7.36814 1.08445 6.68138 0.799988 5.9653 0.799988C5.24921 0.799988 4.56246 1.08445 4.05611 1.5908C3.54976 2.09715 3.2653 2.7839 3.2653 3.49999C3.2653 4.21607 3.54976 4.90283 4.05611 5.40918C4.56246 5.91552 5.24921 6.19999 5.9653 6.19999ZM1.1188 13.7852C0.94234 13.6752 0.800609 13.5175 0.709988 13.3304C0.619367 13.1433 0.583557 12.9343 0.606698 12.7277C0.772618 11.4236 1.40837 10.2248 2.39483 9.35595C3.38128 8.48705 4.65073 8.00769 5.9653 8.00769C7.27986 8.00769 8.54931 8.48705 9.53577 9.35595C10.5222 10.2248 11.158 11.4236 11.3239 12.7277C11.3761 13.148 11.1691 13.5557 10.8109 13.7843C9.36482 14.711 7.68282 15.2024 5.9653 15.2C4.24756 15.2028 2.56523 14.7117 1.1188 13.7852Z" fill="#1A97D4"/>
</svg>
