<svg width="44" height="44" viewBox="0 0 44 44" fill="none" xmlns="http://www.w3.org/2000/svg">
<rect x="0.5" y="0.5" width="43" height="43" rx="21.5" fill="white"/>
<path d="M26.6002 15.82C25.9166 15.0396 25.5399 14.0374 25.5402 13H22.4502V25.4C22.4263 26.071 22.143 26.7066 21.6599 27.1729C21.1768 27.6393 20.5316 27.8999 19.8602 27.9C18.4402 27.9 17.2602 26.74 17.2602 25.3C17.2602 23.58 18.9202 22.29 20.6302 22.82V19.66C17.1802 19.2 14.1602 21.88 14.1602 25.3C14.1602 28.63 16.9202 31 19.8502 31C22.9902 31 25.5402 28.45 25.5402 25.3V19.01C26.7932 19.9099 28.2975 20.3926 29.8402 20.39V17.3C29.8402 17.3 27.9602 17.39 26.6002 15.82Z" fill="#1A97D4"/>
<rect x="0.5" y="0.5" width="43" height="43" rx="21.5" stroke="#E1EDF2"/>
</svg>
