<svg width="24" height="24" viewBox="0 0 24 24" fill="none" xmlns="http://www.w3.org/2000/svg">
<path d="M12 19.2001C15.96 19.2001 19.2 15.9601 19.2 12.0001C19.2 8.04006 15.96 4.80006 12 4.80006C8.04 4.80006 4.8 8.04006 4.8 12.0001C4.8 15.9601 8.04 19.2001 12 19.2001ZM12 3.00006C16.95 3.00006 21 7.05006 21 12.0001C21 16.9501 16.95 21.0001 12 21.0001C7.05 21.0001 3 16.9501 3 12.0001C3 7.05006 7.05 3.00006 12 3.00006ZM16.5 13.7101L15.87 14.8801L11.1 12.2701V7.50006H12.45V11.4601L16.5 13.7101Z" fill="#1A97D4"/>
</svg>
