<svg width="30" height="162" viewBox="0 0 30 162" fill="none" xmlns="http://www.w3.org/2000/svg">
<path d="M15 155C15 155 15 122.826 15 78.5252C15 47.3412 15 71.8429 15 7.00006" stroke="#E1EDF2" stroke-width="1.5" stroke-miterlimit="10" stroke-dasharray="4 4"/>
<rect width="30" height="30" transform="translate(30 66.0001) rotate(90)" fill="white"/>
<path d="M17.501 88.5483L17.501 84.0561L24.6494 79.9546C24.8447 79.8374 25.001 79.6421 25.001 79.4077L25.001 76.8686C25.001 76.439 24.5713 76.1265 24.1807 76.2436L17.501 78.1577L17.501 74.1733L19.7275 72.4546C19.8838 72.3374 20.001 72.1811 20.001 71.9858L20.001 70.4233C20.001 69.9936 19.6104 69.6811 19.2197 69.7983L15.001 71.0483L10.7432 69.7983C10.3525 69.6811 10.001 69.9936 10.001 70.4233L10.001 71.9858C10.001 72.1811 10.0791 72.3374 10.2354 72.4546L12.501 74.1733L12.501 78.1577L5.78223 76.2436C5.39161 76.1265 5.00098 76.439 5.00098 76.8686L5.00098 79.4077C5.00098 79.6421 5.11817 79.8374 5.31348 79.9546L12.501 84.0561L12.501 88.5483C12.501 89.9155 13.5947 92.2983 15.001 92.2983C16.3682 92.2983 17.501 89.9155 17.501 88.5483Z" fill="#1A97D4"/>
<circle cx="15" cy="6.00006" r="5.5" fill="#F2FBFF" stroke="#1A97D4"/>
<circle cx="15" cy="6.00006" r="3" fill="#1A97D4"/>
<circle cx="15" cy="156" r="5.5" fill="#F2FBFF" stroke="#1A97D4"/>
<circle cx="15" cy="156" r="3" fill="#1A97D4"/>
</svg>
