<svg width="22" height="22" viewBox="0 0 22 22" fill="none" xmlns="http://www.w3.org/2000/svg">
<g clip-path="url(#clip0_1476_226)">
<path fill-rule="evenodd" clip-rule="evenodd" d="M9.62499 1.83301C8.38253 1.83311 7.15811 2.13034 6.05389 2.69989C4.94967 3.26945 3.99766 4.09481 3.27729 5.10712C2.55692 6.11942 2.08908 7.28933 1.9128 8.51921C1.73653 9.7491 1.85693 11.0033 2.26395 12.1772C2.67098 13.3511 3.35283 14.4106 4.25262 15.2674C5.15241 16.1242 6.24405 16.7534 7.43646 17.1025C8.62887 17.4516 9.88747 17.5104 11.1073 17.2742C12.327 17.0379 13.4726 16.5134 14.4485 15.7443L17.7962 19.092C17.969 19.259 18.2006 19.3514 18.4409 19.3493C18.6813 19.3472 18.9112 19.2508 19.0812 19.0808C19.2511 18.9109 19.3475 18.681 19.3496 18.4406C19.3517 18.2003 19.2593 17.9687 19.0923 17.7958L15.7447 14.4482C16.6503 13.2992 17.2142 11.9185 17.3718 10.4641C17.5294 9.00964 17.2744 7.54019 16.6359 6.22393C15.9973 4.90766 15.0011 3.79775 13.7613 3.02122C12.5214 2.24469 11.088 1.83291 9.62499 1.83301ZM3.66666 9.62467C3.66666 8.04443 4.29441 6.5289 5.41181 5.4115C6.52921 4.29409 8.04474 3.66634 9.62499 3.66634C11.2052 3.66634 12.7208 4.29409 13.8382 5.4115C14.9556 6.5289 15.5833 8.04443 15.5833 9.62467C15.5833 11.2049 14.9556 12.7204 13.8382 13.8379C12.7208 14.9553 11.2052 15.583 9.62499 15.583C8.04474 15.583 6.52921 14.9553 5.41181 13.8379C4.29441 12.7204 3.66666 11.2049 3.66666 9.62467Z" fill="white"/>
</g>
<defs>
<clipPath id="clip0_1476_226">
<rect width="22" height="22" fill="white"/>
</clipPath>
</defs>
</svg>
