<svg width="28" height="28" viewBox="0 0 28 28" fill="none" xmlns="http://www.w3.org/2000/svg">
<rect width="28" height="28" rx="14" fill="white"/>
<path d="M12.1703 21.0002C12.3197 21.0007 12.4673 20.9677 12.6023 20.9037C12.7373 20.8397 12.8562 20.7462 12.9503 20.6302L17.7803 14.6302C17.9274 14.4513 18.0078 14.2268 18.0078 13.9952C18.0078 13.7636 17.9274 13.5391 17.7803 13.3602L12.7803 7.36018C12.6106 7.15597 12.3667 7.02754 12.1022 7.00316C11.8378 6.97878 11.5745 7.06045 11.3703 7.23018C11.1661 7.39992 11.0377 7.64383 11.0133 7.90826C10.9889 8.17269 11.0706 8.43597 11.2403 8.64018L15.7103 14.0002L11.3903 19.3602C11.268 19.507 11.1904 19.6857 11.1665 19.8753C11.1426 20.0648 11.1735 20.2572 11.2556 20.4298C11.3376 20.6023 11.4674 20.7477 11.6295 20.8488C11.7916 20.9499 11.9793 21.0024 12.1703 21.0002Z" fill="#1A97D4"/>
</svg>
