<svg width="78" height="55" viewBox="0 0 78 55" fill="none" xmlns="http://www.w3.org/2000/svg">
<rect y="0.5" width="78" height="54" rx="27" fill="#1A97D4"/>
<g clip-path="url(#clip0_7_537)">
<path d="M50.0055 19.171L43.0055 37.2543C42.9362 37.4334 42.8239 37.5927 42.6783 37.7179C42.5328 37.8432 42.3585 37.9306 42.1711 37.9723C41.9837 38.0141 41.7889 38.009 41.6039 37.9574C41.4189 37.9058 41.2496 37.8094 41.1108 37.6766L37.1651 33.9025L34.7455 36.321C34.6638 36.4024 34.5599 36.4577 34.4468 36.4801C34.3337 36.5025 34.2165 36.4908 34.11 36.4466C34.0036 36.4024 33.9126 36.3277 33.8485 36.2318C33.7845 36.136 33.7503 36.0233 33.7503 35.908V30.6358L27.6941 24.8433C27.5439 24.6996 27.4348 24.5182 27.3781 24.3182C27.3215 24.1181 27.3193 23.9065 27.3719 23.7053C27.4245 23.5041 27.5299 23.3206 27.6772 23.1738C27.8245 23.027 28.0084 22.9223 28.2098 22.8705L48.6265 17.6205C48.834 17.5673 49.0522 17.5723 49.2571 17.635C49.4621 17.6976 49.6457 17.8155 49.7881 17.9757C49.9304 18.1358 50.0259 18.3321 50.064 18.543C50.1022 18.7538 50.0815 18.9711 50.0043 19.171H50.0055ZM47.167 20.501L34.371 28.8438L36.3951 30.7805L47.167 20.501Z" fill="white"/>
</g>
<defs>
<clipPath id="clip0_7_537">
<rect width="28" height="28" fill="white" transform="translate(25 13.5)"/>
</clipPath>
</defs>
</svg>
