<svg width="44" height="44" viewBox="0 0 44 44" fill="none" xmlns="http://www.w3.org/2000/svg">
<rect x="0.5" y="0.5" width="43" height="43" rx="21.5" fill="white"/>
<path d="M30.6473 15.4549L25.1473 29.6633C25.0929 29.804 25.0046 29.9291 24.8902 30.0275C24.7759 30.1259 24.639 30.1946 24.4917 30.2274C24.3445 30.2603 24.1914 30.2562 24.0461 30.2157C23.9007 30.1752 23.7677 30.0994 23.6586 29.9951L20.5585 27.0297L18.6573 28.9299C18.5931 28.9939 18.5115 29.0374 18.4226 29.055C18.3338 29.0725 18.2417 29.0634 18.158 29.0287C18.0744 28.9939 18.0029 28.9352 17.9526 28.8599C17.9023 28.7846 17.8754 28.696 17.8754 28.6054V24.463L13.117 19.9118C12.9989 19.7988 12.9132 19.6564 12.8687 19.4991C12.8241 19.3419 12.8225 19.1757 12.8638 19.0176C12.9051 18.8595 12.9879 18.7153 13.1037 18.6C13.2194 18.4847 13.3639 18.4024 13.5221 18.3617L29.5638 14.2367C29.7269 14.1949 29.8983 14.1988 30.0593 14.2481C30.2203 14.2973 30.3647 14.3899 30.4765 14.5158C30.5883 14.6416 30.6633 14.7958 30.6933 14.9615C30.7233 15.1272 30.707 15.2979 30.6464 15.4549H30.6473ZM28.417 16.4999L18.363 23.055L19.9535 24.5767L28.417 16.4999Z" fill="#1A97D4"/>
<rect x="0.5" y="0.5" width="43" height="43" rx="21.5" stroke="#E1EDF2"/>
</svg>
